<svg version="1" xmlns="http://www.w3.org/2000/svg" width="1365.333" height="1365.333" viewBox="0 0 1024.000000 1024.000000"><path d="M427.5 1.9c-5.5 2.5-9.1 5.9-11.5 11.2-1.8 4.2-2 6.6-2 45.1v40.7l-4.2 1.1c-19.2 4.7-46.9 14-64.8 21.7-10.6 4.6-35.2 17-44 22.3-5.6 3.3-10.7 6-11.3 6-.6 0-14-12.8-29.7-28.5-29.7-29.6-32.1-31.5-40.4-31.7-9.1-.1-9.8.5-69.4 60-34.7 34.7-56.9 57.6-58.2 60.1-2.6 5.1-2.6 13.2-.1 18.6 1.2 2.6 12 14.1 30.4 32.4l28.4 28.3-5.8 9.9c-9.2 15.5-18.3 34.1-28.4 58.4-4 9.6-11.2 31.9-15.6 48.2l-2.2 8.3H17.4l-5.5 2.7c-4 2.1-6.1 4-8.4 7.7l-3 4.9v165.2l2.8 4.7c2.9 5.1 6.3 7.8 11.6 9.7 2.4.8 15.8 1.1 43.6 1.1l40.2.1 2.3 8.7c3.2 12.6 13.1 42.1 18 53.7 5.9 14.1 19.8 42.3 26.3 53.1l5.4 9.2-28.4 28.3c-29.1 29-32.2 32.8-32.5 40.1-.1 4.9 1.2 9.9 3.5 13.3 1.2 1.6 27 27.9 57.4 58.2 36 35.9 56.7 56 59.5 57.4 5.2 2.7 12.3 2.7 18.1 0 2.9-1.3 13.1-10.8 32.6-30.4l28.3-28.4 6.4 3.9c31.2 18.9 72 35.9 109.7 45.8l8.7 2.3v40.6c0 40.4 0 40.6 2.4 45.6 2.3 4.9 6.4 8.9 11.8 11.3 2.1.9 23.3 1.2 83.7 1.2h80.8l5.4-2.8c3.9-2 6.2-4.1 8.4-7.7l3-4.8.3-41.9.3-41.8 2.7-.6c33.7-7.7 76.2-24.8 109.9-44.1l12.1-7 28.4 28.4c17.7 17.8 29.8 29.1 32.4 30.3 5.4 2.7 13.3 2.6 18.5 0 2.5-1.3 25.5-23.6 60-58.1 59.6-59.6 60.1-60.1 60.1-69.5 0-8.1-2.7-11.4-32.5-41.3l-28.4-28.3 2.4-4.2c1.3-2.2 2.8-4.8 3.3-5.6 4.8-7.6 13.1-23.6 19.5-37.5 9.3-20.3 15.3-36.7 22.3-61.2l4.6-16.2 40-.1c27.3 0 41.2-.4 43.8-1.2 5-1.5 12.1-8.6 13.6-13.6.9-2.9 1.2-25.7 1.2-83.9v-79.9l-2.7-5.5c-2.9-5.7-8.4-10.3-13.6-11.3-1.6-.3-20.7-.6-42.6-.6l-39.8-.1-3.7-13.7c-8.6-31.5-24-69-39.1-95.2-2.1-3.6-4.9-8.6-6.4-11.2l-2.6-4.8 29.2-29.2C928.6 233.7 932 230 933 226c1.7-6.5 1.4-11.2-1-16.1-1.4-2.7-21.5-23.5-57.9-59.8-30.6-30.6-56.8-56.4-58.3-57.3-2.2-1.5-10-3.5-11.8-3.1-.3.1-1.9.3-3.6.6-1.7.3-4.4 1.2-6 2-1.6.9-15.7 14.3-31.3 30l-28.3 28.4-8.2-4.9c-22.8-13.6-57.3-29.1-83.6-37.6-10.8-3.5-31-9.2-32.5-9.2-.3 0-.5-18.3-.5-40.8 0-38.5-.2-40.9-2-45.1-2.5-5.4-5.2-8.2-10.7-11-4.2-2.1-4.5-2.1-85-2-75.9 0-81 .1-84.8 1.8zM534 273.5c4.7.4 8.7.8 9 1 .3.2 3.2.6 6.5 1 18.3 1.9 50.8 12.4 71 22.8 7.4 3.8 21.6 12.1 24 13.9.6.4 4.8 3.5 9.5 6.9 16.9 12.2 31.5 26.4 47.9 46.4 3 3.8 9.1 12.5 9.1 13.2 0 .3.7 1.5 1.7 2.5 1.8 2 1.7 1.9 8.8 14.4 28.7 51.2 37.3 112.5 23.9 170.4-12.1 52-41.4 98.8-82.9 132.3-8.8 7.1-22.2 16.4-29.5 20.6-14 7.9-38.2 18.8-45.9 20.7-.9.2-4.7 1.3-8.6 2.4-13.5 4-31.3 7.3-47 8.7-13.7 1.2-42.4.5-51-1.2-1.1-.2-3.8-.6-6-.9-2.2-.3-7.4-1.2-11.5-2.1-53.8-11.3-100.6-39.6-135.7-82-9.9-11.9-8.8-10.5-17-23.1-17.7-27.5-31.5-63.6-34.8-91-.3-2.7-.8-5.9-1-7.1-1.8-8.4-2.5-38.9-1.2-52.3 1-10.3 1.1-10.9 3.3-24 2.8-17 10.9-41.1 20.5-60.7 6-12.2 19.1-33.5 25.4-41.2 28.9-35.1 56-55.8 96.8-74.1 13.3-5.9 42.8-14.1 55.9-15.6 2.9-.3 5.6-.8 6-1 .3-.2 6-.7 12.5-1 6.5-.4 11.9-.7 12-.8.5-.4 20.5.2 28.3.9z"/><path d="M498.5 403.7c-21.2 4.1-33.3 8.7-46.9 17.7-24.9 16.6-40.9 41.1-47.1 72.1-.3 1.6-.8 8-1.2 14.1-2.7 49.3 30.2 95 78.3 108.9 11.8 3.4 16.6 4 32.4 3.9 14 0 19-.8 32.5-5.1 32.2-10.3 58.6-37.1 69.3-70.3 5.9-18.3 6.6-41.2 1.8-59.5-1.4-5.5-3-10.9-3.5-12-.5-1.1-2.1-4.7-3.5-7.9-4.2-9.4-13-21.9-21.7-30.5-20.7-20.8-47.4-31.8-77.2-31.8-6.1 0-12.1.2-13.2.4z"/></svg>